#!OML:ASF E:\Style4\Style4.ASF
:FULLY-SPECIFIED
:DEGREES
2190
root -0.200702 18.0813 -1.04436 1.73205 -2.80793 3.43732
lowerback 2.56252 1.88163 -1.87403
upperback 0.0929083 2.43098 -1.60839
thorax -1.34835 1.22131 -0.688768
lowerneck 0.402538 -3.62154 -7.19722
upperneck 8.84559 -5.10261 5.34128
head 3.18064 -2.61252 2.90853
rclavicle -1.46076e-014 -8.54774e-015
rhumerus -87.0581 57.9336 -124.203
rradius 86.7195
rwrist -3.1618
rhand -5.2077 32.3726
rfingers 7.12502
rthumb 20.5938 3.44507
lclavicle -1.46076e-014 -8.54774e-015
lhumerus -82.3581 -61.7329 113.872
lradius 92.949
lwrist -15.6882
lhand -11.593 1.03283
lfingers 7.12502
lthumb 14.4491 30.5098
rfemur -5.54606 4.21407 15.1687
rtibia 21.507
rfoot -16.8324 -15.7394
rtoes -11.2262
lfemur 1.50418 -3.78992 -22.8509
ltibia 10.6516
lfoot -14.3323 13.5931
ltoes -15.4605
2191
root -0.199701 18.0811 -1.044 1.75473 -2.80785 3.43984
lowerback 2.57027 1.85967 -1.87868
upperback 0.0948414 2.40149 -1.59858
thorax -1.35125 1.20664 -0.675251
lowerneck 0.312472 -3.60825 -7.20423
upperneck 8.88425 -5.07752 5.31161
head 3.20817 -2.60018 2.89933
rclavicle -1.05884e-014 2.93207e-015
rhumerus -87.0648 57.9689 -124.198
rradius 86.7439
rwrist -3.10897
rhand -5.35944 32.3371
rfingers 7.12502
rthumb 20.448 3.39378
lclavicle -1.05884e-014 2.93207e-015
lhumerus -82.2785 -61.6363 113.783
lradius 92.9509
lwrist -15.6554
lhand -11.4813 1.14264
lfingers 7.12502
lthumb 14.5568 30.6119
rfemur -5.5873 4.25581 15.1649
rtibia 21.5498
rfoot -16.8653 -15.7755
rtoes -11.2357
lfemur 1.55035 -3.79381 -22.8597
ltibia 10.5182
lfoot -14.2257 13.6537
ltoes -15.6158
2192
root -0.197696 18.0808 -1.04241 1.75942 -2.81987 3.4977
lowerback 2.5885 1.82784 -1.96633
upperback 0.0968291 2.35616 -1.57804
thorax -1.36371 1.1846 -0.604234
lowerneck 0.226762 -3.57827 -7.25242
upperneck 8.93352 -5.03135 5.30446
head 3.2396 -2.57828 2.90661
rclavicle 4.08285e-014 -9.44227e-015
rhumerus -87.1734 58.0786 -124.285
rradius 86.7599
rwrist -3.15024
rhand -5.59069 32.2455
rfingers 7.12502
rthumb 20.2258 3.27851
lclavicle 4.08285e-014 -9.44227e-015
lhumerus -82.1369 -61.4788 113.644
lradius 92.9402
lwrist -15.6145
lhand -11.3194 1.18112
lfingers 7.12502
lthumb 14.7128 30.639
rfemur -5.61256 4.29142 15.0909
rtibia 21.592
rfoot -16.9183 -15.7595
rtoes -10.9027
lfemur 1.61592 -3.79438 -22.929
ltibia 10.3933
lfoot -14.1715 13.6488
ltoes -15.55
2193
root -0.195464 18.0816 -1.03932 1.75544 -2.86069 3.58089
lowerback 2.59273 1.82674 -2.04473
upperback 0.11219 2.35235 -1.5934
thorax -1.35284 1.183 -0.575899
lowerneck 0.179276 -3.55667 -7.24915
upperneck 8.92559 -4.99939 5.30828
head 3.24345 -2.56152 2.90782
rclavicle 3.4309e-014 5.76476e-015
rhumerus -87.1334 58.1289 -124.258
rradius 86.7483
rwrist -3.18144
rhand -5.6322 32.2688
rfingers 7.12502
rthumb 20.1859 3.2976
lclavicle 3.4309e-014 5.76476e-015
lhumerus -82.0267 -61.4005 113.51
lradius 92.9355
lwrist -15.6565
lhand -11.3226 1.13881
lfingers 7.12502
lthumb 14.7097 30.5969
rfemur -5.62942 4.29241 14.9798
rtibia 21.617
rfoot -16.9254 -15.6696
rtoes -10.6727
lfemur 1.67822 -3.78714 -23.0359
ltibia 10.3024
lfoot -14.1476 13.6619
ltoes -15.2774
2194
root -0.193877 18.0821 -1.03727 1.77688 -2.8809 3.60973
lowerback 2.60274 1.81807 -2.07218
upperback 0.0896977 2.33893 -1.6042
thorax -1.3821 1.17667 -0.571998
lowerneck 0.201784 -3.53085 -7.20136
upperneck 8.92689 -4.9657 5.28618
head 3.23433 -2.54416 2.8926
rclavicle 2.883e-014 -2.04748e-014
rhumerus -87.1313 58.1349 -124.285
rradius 86.7234
rwrist -3.16792
rhand -5.52678 32.2884
rfingers 7.12502
rthumb 20.2872 3.32794
lclavicle 2.883e-014 -2.04748e-014
lhumerus -82.028 -61.3235 113.465
lradius 92.9491
lwrist -15.6981
lhand -11.3185 1.22471
lfingers 7.12502
lthumb 14.7136 30.6826
rfemur -5.66722 4.31056 14.9388
rtibia 21.6334
rfoot -16.9012 -15.6663
rtoes -10.9168
lfemur 1.69877 -3.76237 -23.0763
ltibia 10.2313
lfoot -14.1311 13.7028
ltoes -15.5586
2195
root -0.192659 18.0824 -1.03476 1.81677 -2.86745 3.55711
lowerback 2.58108 1.8111 -2.00393
upperback 0.0710062 2.33213 -1.59293
thorax -1.38682 1.17299 -0.597907
lowerneck 0.185229 -3.52643 -7.22375
upperneck 8.96128 -4.96095 5.30856
head 3.2508 -2.5419 2.90471
rclavicle -2.98954e-014 2.05742e-014
rhumerus -87.0847 58.1038 -124.245
rradius 86.7206
rwrist -3.19949
rhand -5.36551 32.3044
rfingers 7.12502
rthumb 20.4422 3.36052
lclavicle -2.98954e-014 2.05742e-014
lhumerus -81.9805 -61.2857 113.4
lradius 92.9695
lwrist -15.7091
lhand -11.2485 1.24274
lfingers 7.12502
lthumb 14.7811 30.6957
rfemur -5.68867 4.35587 14.9984
rtibia 21.6229
rfoot -16.8973 -15.745
rtoes -10.9308
lfemur 1.67966 -3.78933 -23.021
ltibia 10.2054
lfoot -14.135 13.7087
ltoes -15.4313
